<svg xmlns="http://www.w3.org/2000/svg" width="25" height="25" fill="none" viewBox="0 0 25 25">
  <path fill="#000" stroke="#000" d="M22.317 3.09H5.181v.15l-.215-.734A2.101 2.101 0 0 0 2.96 1H1.523a.522.522 0 1 0 0 1.045H2.96c.462 0 .875.31 1.004.753l3.254 11.156-1.668 2.084a1.685 1.685 0 0 0 1.315 2.735h14.521a.525.525 0 0 0 .523-.523.521.521 0 0 0-.523-.523H6.866a.639.639 0 0 1-.499-1.037l1.68-2.1H18.3a2.1 2.1 0 0 0 1.892-1.2l3.648-7.75c.105-.225.16-.469.16-.717v-.148c0-.928-.755-1.683-1.683-1.683Zm.638 1.833a.64.64 0 0 1-.061.271l-3.648 7.751a1.05 1.05 0 0 1-.946.6H8.188L5.443 4.136h16.873a.64.64 0 0 1 .639.638v.149ZM7.273 19.818a2.093 2.093 0 0 0-2.091 2.091c0 1.153.938 2.091 2.09 2.091a2.093 2.093 0 0 0 2.092-2.09 2.094 2.094 0 0 0-2.091-2.092Zm0 3.137a1.047 1.047 0 0 1 0-2.09 1.045 1.045 0 1 1 0 2.09Zm12.545-3.137c-1.153 0-2.09.938-2.09 2.091 0 1.153.937 2.091 2.09 2.091a2.093 2.093 0 0 0 2.091-2.09 2.093 2.093 0 0 0-2.09-2.092Zm0 3.137a1.047 1.047 0 0 1 0-2.09 1.045 1.045 0 1 1 0 2.09Z"/>
</svg>
