<svg width="30" height="30" viewBox="0 0 30 30" fill="none" xmlns="http://www.w3.org/2000/svg">
<g clip-path="url(#clip0_105_20)">
<path d="M15.0062 30.0125C23.294 30.0125 30.0125 23.294 30.0125 15.0062C30.0125 6.71853 23.294 0 15.0062 0C6.71853 0 0 6.71853 0 15.0062C0 23.294 6.71853 30.0125 15.0062 30.0125Z" fill="#969696"/>
<path d="M30 15.1607V14.8393C23.3571 14.625 20.325 14.4643 17.8929 12.1071C15.5357 9.675 15.3643 6.64286 15.1607 0H14.8393C14.625 6.64286 14.4643 9.675 12.1071 12.1071C9.675 14.4643 6.64286 14.6357 0 14.8393V15.1607C6.64286 15.375 9.675 15.5357 12.1071 17.8929C14.4643 20.325 14.6357 23.3571 14.8393 30H15.1607C15.375 23.3571 15.5357 20.325 17.8929 17.8929C20.325 15.5357 23.3571 15.3643 30 15.1607Z" fill="white"/>
</g>
<defs>
<clipPath id="clip0_105_20">
<rect width="30" height="30" fill="white"/>
</clipPath>
</defs>
</svg>
