<svg xmlns="http://www.w3.org/2000/svg" width="25" height="23" fill="none" viewBox="0 0 25 23">
  <path fill="#000" stroke="#000" d="M22.982 4.233c-1.641-2.68-3.929-3.258-5.558-3.27a7.366 7.366 0 0 0-3.98 1.153l-.944.592-.943-.591A7.351 7.351 0 0 0 7.577.963c-1.63.012-3.918.59-5.559 3.27C.695 6.394.66 8.957 1.922 11.266c.977 1.785 2.491 3.21 3.956 4.588.258.242.501.472.744.704.908.873 1.828 1.714 2.718 2.527.883.808 1.797 1.643 2.694 2.504l.466.448.467-.448c.896-.86 1.81-1.696 2.693-2.504.89-.813 1.81-1.654 2.718-2.527.243-.232.486-.462.744-.704 1.465-1.378 2.98-2.803 3.956-4.588 1.262-2.309 1.227-4.872-.096-7.033Zm-1.087 6.386c-.873 1.597-2.308 2.947-3.696 4.254-.25.234-.507.476-.754.714a149.8 149.8 0 0 1-2.694 2.504c-.737.674-1.496 1.367-2.251 2.082-.755-.714-1.514-1.408-2.251-2.082a150.105 150.105 0 0 1-2.694-2.504c-.248-.238-.505-.48-.754-.714-1.388-1.306-2.823-2.657-3.697-4.254-1.024-1.873-1.001-3.944.063-5.683 1.058-1.728 2.545-2.612 4.42-2.626h.042c1.118 0 2.227.327 3.211.948l1.66 1.04 1.662-1.041a6.008 6.008 0 0 1 3.251-.947c1.875.014 3.362.898 4.42 2.626 1.064 1.739 1.087 3.81.063 5.683Z"/>
</svg>
