<svg width="170" height="58" viewBox="0 0 170 58" fill="none" xmlns="http://www.w3.org/2000/svg">
<path d="M14.36 22.64C17.7733 23.52 19.48 25.5333 19.48 28.68C19.48 31.1067 18.5333 33 16.64 34.36C14.7733 35.72 12.16 36.4 8.8 36.4C7.36 36.4 5.98667 36.2667 4.68 36C3.37333 35.7067 2.25333 35.3067 1.32 34.8L2.32 30.28L2.72 30.08C3.54667 30.6667 4.49333 31.12 5.56 31.44C6.62667 31.76 7.69333 31.92 8.76 31.92C10.3333 31.92 11.6 31.5867 12.56 30.92C13.5467 30.2267 14.04 29.32 14.04 28.2C14.04 27.3733 13.7733 26.68 13.24 26.12C12.7333 25.5333 11.9867 25.1333 11 24.92H5.28L4.96 24.52L5.28 20.84L10.64 20.88C11.3333 20.56 11.88 20.0933 12.28 19.48C12.7067 18.84 12.92 18.1333 12.92 17.36C12.92 16.4 12.5733 15.6933 11.88 15.24C11.2133 14.76 10.1867 14.52 8.8 14.52C6.85333 14.52 4.70667 15.0667 2.36 16.16L1.84 15.88L2.28 11.36C4.28 10.4 6.52 9.92 9 9.92C11.96 9.92 14.2667 10.5067 15.92 11.68C17.6 12.8267 18.44 14.4267 18.44 16.48C18.44 17.84 18.08 19.0667 17.36 20.16C16.6667 21.2267 15.6667 22.0533 14.36 22.64ZM44.7709 36H39.2509L38.6109 32.64L37.9309 30.24L32.8909 30.12L28.4509 30.24L27.7709 32.36L27.0909 36H21.7309L30.4509 10.24H36.8909L44.7709 36ZM36.7709 26.04L33.7309 15.32H33.3709L29.8509 26.04L33.2909 26.12L36.7709 26.04Z" fill="#00A4EA"/>
<path d="M59.5497 22.4C62.403 26.3733 65.6964 30.5333 69.4297 34.88L69.3497 35.48C67.8564 35.8533 66.0964 36.16 64.0697 36.4L63.4297 36.08C59.9364 31.44 56.8297 26.9867 54.1097 22.72L54.0297 27.84L54.2297 36H48.8297L49.1097 28.32L48.8297 10.24H54.3097L54.1097 22.2L61.3497 12.72L62.8297 10.24H68.6697L59.5497 22.4ZM93.0809 10.28L85.9209 27.8C84.8543 30.1467 83.8543 31.9067 82.9209 33.08C82.0143 34.2267 80.9343 35.04 79.6809 35.52C78.4276 36 76.7343 36.28 74.6009 36.36L74.2009 36.32C73.7476 34.96 73.4409 33.5333 73.2809 32.04L73.4809 31.56C75.3743 31.3733 76.8009 31.16 77.7609 30.92C78.7209 30.6533 79.4943 30.2667 80.0809 29.76L70.4409 10.28L76.2409 10.24L77.2409 13.04L82.2809 24.36H82.7609L87.0009 12.76L87.7609 10.28H93.0809ZM116.56 27.84L116.76 36H111.36L111.6 28.32L111.4 14.44H102.12L101.92 27.84L102.12 36H96.7203L96.9603 28.32L96.7203 10.24H116.84L116.56 27.84ZM123.874 28.32L123.594 10.4L129.114 10.12L128.754 27.76H129.154L139.594 10.24H145.354L145.074 27.84L145.274 36H139.834L140.074 28.32L140.114 18.48H139.754L129.234 36H123.594L123.874 28.32Z" fill="black"/>
<rect x="133.654" y="40.8371" width="31.5282" height="16.9943" rx="8.49717" transform="rotate(-22.7312 133.654 40.8371)" fill="white" stroke="#00A4EA"/>
<path d="M143.219 42.1568C144.223 41.7364 145.114 41.7101 145.892 42.0778C146.671 42.4455 147.293 43.1852 147.759 44.2969C148.262 45.4972 148.362 46.5366 148.059 47.4151C147.752 48.2838 147.063 48.9428 145.99 49.3921C144.987 49.8125 144.096 49.8388 143.317 49.4711C142.539 49.1034 141.917 48.3637 141.451 47.252C140.948 46.0517 140.85 45.0172 141.157 44.1485C141.459 43.27 142.147 42.6061 143.219 42.1568ZM143.643 43.5406C143.171 43.7385 142.892 44.0401 142.808 44.4456C142.733 44.847 142.842 45.3969 143.135 46.0955C143.514 47.0006 143.892 47.5996 144.269 47.8926C144.646 48.1856 145.081 48.2291 145.573 48.023C146.045 47.8252 146.321 47.5305 146.399 47.139C146.484 46.7335 146.378 46.1765 146.081 45.4682C145.706 44.5729 145.325 43.9808 144.938 43.6919C144.557 43.3891 144.125 43.3387 143.643 43.5406ZM155.356 42.0855L156.574 44.7847L154.626 45.6008L153.657 43.0402L152.37 40.0926L150.171 41.0138L151.254 43.8043L152.486 46.4973L150.523 47.3195L149.569 44.7528L147.678 40.4451L153.699 37.9226L155.356 42.0855ZM160.442 35.2535L160.856 36.572L159.48 37.0966L158.978 37.3068L159.958 39.8107L161.314 42.7989L159.366 43.615L158.267 40.7445L157.104 38.092L156.573 38.3145L155.234 38.9276L155.075 38.8381L154.631 37.5318L160.269 35.1701L160.442 35.2535Z" fill="#00A4EA"/>
</svg>
