<svg width="30" height="30" viewBox="0 0 30 30" fill="none" xmlns="http://www.w3.org/2000/svg">
<g clip-path="url(#clip0_105_11)">
<path d="M15.0062 30.0125C23.294 30.0125 30.0125 23.294 30.0125 15.0062C30.0125 6.71853 23.294 0 15.0062 0C6.71853 0 0 6.71853 0 15.0062C0 23.294 6.71853 30.0125 15.0062 30.0125Z" fill="#969696"/>
<path d="M14.9833 4.4834C12.0101 4.4834 9.59985 6.90606 9.59985 9.89447C9.59985 12.883 12.0101 15.3058 14.9833 15.3058C17.9565 15.3058 20.3668 12.883 20.3668 9.89447C20.3668 6.90606 17.9565 4.4834 14.9833 4.4834ZM14.9833 12.1314C13.7543 12.1314 12.7579 11.1299 12.7579 9.89455C12.7579 8.65921 13.7543 7.65773 14.9833 7.65773C16.2123 7.65773 17.2087 8.65921 17.2087 9.89455C17.2087 11.1299 16.2123 12.1314 14.9833 12.1314Z" fill="white"/>
<path d="M16.8838 19.6117C19.0391 19.1704 20.3306 18.1445 20.3989 18.0894C21.0296 17.5811 21.1309 16.6551 20.6251 16.0211C20.1194 15.3872 19.1982 15.2854 18.5674 15.7937C18.5541 15.8045 17.1766 16.8666 14.9101 16.8682C12.6437 16.8666 11.2371 15.8045 11.2238 15.7937C10.593 15.2854 9.67182 15.3872 9.16612 16.0211C8.66035 16.6551 8.76166 17.5811 9.39231 18.0894C9.46157 18.1453 10.8064 19.1978 13.022 19.6288L9.93414 22.8724C9.37298 23.4574 9.38985 24.3888 9.97182 24.9528C10.2559 25.2281 10.622 25.3649 10.9878 25.3649C11.3713 25.3649 11.7544 25.2143 12.0416 24.9149L14.9102 21.8434L18.0686 24.9348C18.6408 25.509 19.5675 25.5081 20.1387 24.9331C20.7098 24.3581 20.7091 23.4265 20.137 22.8524L16.8838 19.6117Z" fill="white"/>
</g>
<defs>
<clipPath id="clip0_105_11">
<rect width="30" height="30" fill="white"/>
</clipPath>
</defs>
</svg>
