<svg xmlns="http://www.w3.org/2000/svg" width="19" height="24" fill="none" viewBox="0 0 19 24">
  <path fill="#000" stroke="#000" d="M9.5 10.468a4.74 4.74 0 0 0 4.734-4.734A4.739 4.739 0 0 0 9.5 1a4.739 4.739 0 0 0-4.734 4.734A4.74 4.74 0 0 0 9.5 10.468Zm0-8.03a3.3 3.3 0 0 1 3.296 3.296A3.3 3.3 0 0 1 9.5 9.03a3.3 3.3 0 0 1-3.296-3.297A3.3 3.3 0 0 1 9.5 2.438Zm-4.814 9.468c-.5.328-.965.707-1.387 1.13A8.739 8.739 0 0 0 .73 19.235a3.332 3.332 0 0 0 3.328 3.328H14.94a3.312 3.312 0 0 0 2.36-.977c.62-.625.969-1.47.968-2.351a8.741 8.741 0 0 0-3.955-7.33.776.776 0 0 0-.854.05 6.196 6.196 0 0 1-7.92 0 .776.776 0 0 0-.854-.049Zm9.243 1.497c.264.201.52.412.754.647a7.31 7.31 0 0 1 2.149 5.185 1.88 1.88 0 0 1-1.891 1.89H4.059a1.893 1.893 0 0 1-1.89-1.89 7.31 7.31 0 0 1 2.147-5.185 7.4 7.4 0 0 1 .755-.647A7.65 7.65 0 0 0 9.5 14.822a7.645 7.645 0 0 0 4.429-1.42Z"/>
</svg>
