<svg width="20" height="20" viewBox="0 0 20 20" fill="none" xmlns="http://www.w3.org/2000/svg">
<path fill-rule="evenodd" clip-rule="evenodd" d="M13.2975 15.0232C11.8847 16.0689 16.2778 11.5765 15.0277 13.2842C15.059 13.2817 15.001 13.3764 14.8066 13.6137C14.8066 13.6137 18.1453 16.9299 19.7842 18.6176C20.3532 19.2328 19.3266 20.4609 18.6292 19.8197C17.145 18.3798 13.6333 14.8013 13.6278 14.7955L13.2975 15.0232Z" fill="#75767D"/>
<path d="M8.39169 16.7001C10.5399 16.6792 12.6664 15.7895 14.1956 14.2782C16.0117 12.4833 16.9469 9.8279 16.6208 7.29261C16.0618 2.94824 12.4904 0 8.3383 0C5.18357 0 2.1177 1.97342 0.772882 4.83491C-0.256584 7.02565 -0.25867 9.67065 0.772882 11.8651C2.1081 14.7066 5.12392 16.6696 8.28449 16.7001C8.32036 16.7001 8.35623 16.7001 8.39169 16.7001ZM8.29325 15.3081C5.08513 15.2772 2.09184 12.7962 1.4966 9.61517C1.07697 7.3727 1.86909 4.94586 3.51924 3.35327C5.44553 1.49331 8.47344 0.870541 10.9912 1.92462C13.2437 2.86774 14.9297 5.05765 15.2405 7.47031C15.5066 9.53842 14.7645 11.7058 13.3063 13.1987C12.0269 14.5085 10.2329 15.2902 8.38293 15.3081C8.3529 15.3081 8.32328 15.3081 8.29325 15.3081Z" fill="#75767D"/>
</svg>
