<svg width="30" height="30" viewBox="0 0 30 30" fill="none" xmlns="http://www.w3.org/2000/svg">
<g clip-path="url(#clip0_105_5)">
<path d="M15.0062 30.0125C23.294 30.0125 30.0125 23.294 30.0125 15.0062C30.0125 6.71853 23.294 0 15.0062 0C6.71853 0 0 6.71853 0 15.0062C0 23.294 6.71853 30.0125 15.0062 30.0125Z" fill="#969696"/>
<path fill-rule="evenodd" clip-rule="evenodd" d="M6.78462 14.8441C11.1578 12.9449 14.0691 11.6829 15.531 11.0706C19.6917 9.33385 20.5664 9.03398 21.1286 9.02148C21.2536 9.02148 21.5285 9.04647 21.7159 9.19641C21.8658 9.32136 21.9033 9.48379 21.9283 9.60874C21.9533 9.73369 21.9783 9.99608 21.9533 10.196C21.7284 12.57 20.7538 18.3301 20.254 20.979C20.0416 22.1035 19.6293 22.4784 19.2294 22.5159C18.3548 22.5908 17.6926 21.9411 16.8554 21.3913C15.531 20.5292 14.7938 19.9919 13.5068 19.1423C12.0199 18.1677 12.982 17.6304 13.8317 16.7558C14.0566 16.5309 17.8925 13.0323 17.9675 12.7199C17.98 12.6825 17.98 12.5325 17.8925 12.4576C17.805 12.3826 17.6801 12.4076 17.5801 12.4326C17.4427 12.4576 15.3436 13.857 11.2578 16.6183C10.658 17.0306 10.1207 17.2306 9.63344 17.2181C9.09616 17.2056 8.07159 16.9182 7.29691 16.6683C6.3598 16.3684 5.61011 16.206 5.67259 15.6812C5.71007 15.4063 6.08491 15.1314 6.78462 14.8441Z" fill="white"/>
</g>
<defs>
<clipPath id="clip0_105_5">
<rect width="30" height="30" fill="white"/>
</clipPath>
</defs>
</svg>
