<svg width="30" height="30" viewBox="0 0 30 30" fill="none" xmlns="http://www.w3.org/2000/svg">
<g clip-path="url(#clip0_105_2)">
<path d="M15.0062 30.0125C23.294 30.0125 30.0125 23.294 30.0125 15.0062C30.0125 6.71853 23.294 0 15.0062 0C6.71853 0 0 6.71853 0 15.0062C0 23.294 6.71853 30.0125 15.0062 30.0125Z" fill="#969696"/>
<path d="M15.8002 21C9.65035 21 6.14386 16.8783 6 10.0088H9.09291C9.19181 15.0464 11.4575 17.1777 13.2557 17.6181V10.0088H16.1598V14.3507C17.9311 14.1657 19.8012 12.1841 20.4306 10H23.3257C23.0896 11.1306 22.6181 12.2014 21.9405 13.1455C21.2629 14.0895 20.3938 14.8866 19.3876 15.4868C20.5105 16.0343 21.5022 16.8087 22.2972 17.759C23.0923 18.7093 23.6726 19.8139 24 21H20.8082C20.1249 18.9127 18.4166 17.2922 16.1598 17.0721V21H15.8092H15.8002Z" fill="white"/>
</g>
<defs>
<clipPath id="clip0_105_2">
<rect width="30" height="30" fill="white"/>
</clipPath>
</defs>
</svg>
