<svg width="30" height="30" viewBox="0 0 30 30" fill="none" xmlns="http://www.w3.org/2000/svg">
<path d="M15 30C23.2843 30 30 23.2843 30 15C30 6.71573 23.2843 0 15 0C6.71573 0 0 6.71573 0 15C0 23.2843 6.71573 30 15 30Z" fill="#969696"/>
<path d="M21.7045 18.2433C21.4619 17.4705 21.1034 16.8017 20.6276 16.2387C20.1532 15.6752 19.6541 15.3196 19.1336 15.1725C20.9418 14.8086 21.8437 13.7891 21.8437 12.1171C21.8437 9.92306 20.1317 8.99609 16.82 8.99609C16.3455 8.99609 15.7033 9.03002 14.8685 9.0754C13.9183 9.12078 13.1019 9.04808 12.337 9.04808C12.1055 9.30934 11.995 9.58205 11.995 10.0363C12.3884 10.0363 13.0213 9.90147 13.2062 10.038C13.3915 10.1746 13.3977 10.6403 13.3977 10.9469L13.5432 19.0596C13.5432 19.3663 13.1798 19.85 12.9255 19.8258C12.699 19.8046 12.3983 19.9505 12.0116 19.7932C12.0116 20.191 12.1436 20.5496 12.4113 20.8677H16.7493C17.0035 20.5611 16.8647 20.3417 16.8647 19.9328C16.5062 19.9328 16.2502 20.0042 16.0304 19.8615C15.8107 19.7205 15.9561 19.2182 15.9561 18.9231V15.8038H17.1029C17.4166 15.9056 17.6713 16.1783 17.8682 16.6233C18.0643 17.0665 18.2496 17.6247 18.4232 18.2948C18.5848 18.8971 18.7616 19.3843 18.9536 19.7544C19.1452 20.1245 19.4393 20.4232 19.8394 20.6501C20.2391 20.8774 20.7861 20.9911 21.4803 20.9911C22.2206 20.9911 22.7245 20.8091 22.9904 20.4457V19.5918C22.6664 19.5465 22.4023 19.4183 22.2004 19.2085C21.9972 18.9962 21.8316 18.675 21.7045 18.2433ZM18.3534 13.9856C17.9604 14.4125 17.4166 14.6248 16.7211 14.6248C16.4203 14.6248 16.1661 14.6138 15.9575 14.5909V10.1905C16.1311 10.1451 16.4154 10.1226 16.8088 10.1226C17.5491 10.1226 18.0907 10.3011 18.4331 10.6597C18.775 11.0183 18.9451 11.562 18.9451 12.2894C18.9438 12.9938 18.7468 13.5604 18.3534 13.9856Z" fill="white"/>
<path d="M7.28089 18.2473C7.52352 17.474 7.88144 16.8076 8.35643 16.2447C8.83008 15.6822 9.32831 15.327 9.84799 15.1796C8.0432 14.8164 7.14237 13.7975 7.14237 12.1277C7.14237 9.93578 8.79568 9.00974 12.1014 9.00974C12.5751 9.00974 13.2301 9.00314 14.063 9.00974C15.0233 9.01766 15.8182 8.97541 16.6565 9.00974C16.8875 9.27074 16.993 9.69723 16.993 10.151C16.2159 10.0925 15.7655 10.2029 15.7655 10.2029L15.787 18.948C15.8231 19.2429 15.921 19.4585 16.1006 19.595C16.2803 19.7314 16.5654 19.7992 16.9586 19.7992C16.9586 20.1984 16.8263 20.5549 16.5591 20.8731H12.2055C11.9513 20.5664 11.8244 20.2081 11.8244 19.7992C12.1823 19.7992 12.4709 19.7297 12.6921 19.5871C12.9115 19.4458 13.0206 19.227 13.0206 18.9317V15.8085H11.8753C11.5621 15.9106 11.3078 16.1831 11.1117 16.6258C10.915 17.0704 10.7305 17.6263 10.5576 18.2979C10.3958 18.8996 10.2193 19.3859 10.0276 19.7556C9.83637 20.1254 9.5428 20.4238 9.14377 20.6504C8.74429 20.8775 8.19825 20.9911 7.5052 20.9911C6.76613 20.9911 6.26298 20.8093 5.99756 20.4462V19.5932C6.32107 19.5479 6.58471 19.4198 6.78623 19.2103C6.9891 18.9999 7.15398 18.6786 7.28089 18.2473ZM12.2583 14.6329C12.5585 14.6329 12.8123 14.6219 13.0206 14.599V10.2012C12.8472 10.1558 12.5634 10.1334 12.1707 10.1334C11.4316 10.1334 10.8905 10.3117 10.5491 10.6704C10.2077 11.0282 10.0379 11.5718 10.0379 12.298C10.0379 13.0035 10.2341 13.5678 10.6268 13.9943C11.0192 14.4208 11.5639 14.6329 12.2583 14.6329Z" fill="white"/>
</svg>
